<svg version="1.1" id="Layer_1" xmlns="http://www.w3.org/2000/svg" xmlns:xlink="http://www.w3.org/1999/xlink" x="0px" y="0px"
	 width="100%" viewBox="0 0 1080 1080" enable-background="new 0 0 1080 1080" xml:space="preserve">
<path fill="#FFFFFF" opacity="1.000000" stroke="none" 
	d="
M1081.000000,413.000000 
	C1081.000000,634.474426 1080.990234,855.448914 1081.084595,1076.423340 
	C1081.086182,1080.029175 1080.502075,1081.105835 1076.577759,1081.104614 
	C719.619019,1080.991943 362.660278,1080.990479 5.701590,1081.116577 
	C1.545589,1081.118164 0.894954,1080.156372 0.896194,1076.202637 
	C1.008082,719.410583 1.007637,362.618500 0.900342,5.826462 
	C0.899171,1.933313 1.454435,0.878254 5.672513,0.879793 
	C362.464539,1.009988 719.256653,1.010412 1076.048706,0.878713 
	C1080.408691,0.877104 1081.106567,1.944917 1081.102905,6.047622 
	C1080.978516,141.531677 1081.000000,277.015839 1081.000000,413.000000 
z"/>
<path fill="#040404" opacity="1.000000" stroke="none" 
	d="
M328.319519,215.948517 
	C324.085388,202.759781 320.035400,189.772888 315.463531,176.972382 
	C314.132904,173.246719 314.694794,171.288773 317.959167,169.396255 
	C320.524200,167.909134 322.789825,165.905502 325.607574,163.821304 
	C329.070587,173.937454 332.454468,183.725449 335.770752,193.536285 
	C339.330841,204.068420 342.700287,214.667374 346.433899,225.136963 
	C347.472534,228.049423 346.891205,229.475784 344.476990,231.270798 
	C334.685638,238.550934 334.753876,238.650864 324.808380,231.640228 
	C315.863129,225.334671 306.925262,219.018585 296.791443,211.865265 
	C300.572601,223.493195 303.902832,233.822632 307.291626,244.132828 
	C311.392181,256.608368 311.373535,256.543854 300.723083,263.971710 
	C298.918274,265.230438 297.738007,265.333435 295.947845,264.070709 
	C278.175842,251.535019 260.348480,239.077850 242.102325,226.294128 
	C245.973022,223.365601 249.605301,220.776459 253.045517,217.953262 
	C255.017334,216.335114 256.055084,217.922852 257.292755,218.797104 
	C269.091339,227.131195 280.865479,235.499939 293.714691,244.616531 
	C291.422211,237.530457 289.513916,231.585571 287.575165,225.650635 
	C284.999359,217.765350 282.550446,209.833237 279.725159,202.037903 
	C278.792206,199.463730 279.359070,198.280350 281.414673,196.731583 
	C289.830841,190.390533 289.771515,190.314468 298.289001,196.347702 
	C307.787018,203.075424 317.287018,209.800278 327.103088,216.658997 
	C327.554413,216.352493 328.527130,217.214096 328.319519,215.948517 
z"/>
<path fill="#050505" opacity="1.000000" stroke="none" 
	d="
M626.048828,148.123642 
	C637.507690,134.082870 654.551941,134.776718 667.783813,149.822311 
	C668.006409,145.074371 670.189575,144.609863 674.171692,145.923584 
	C682.345642,148.620193 682.426331,148.396667 680.087402,156.482040 
	C677.043701,167.003555 674.055481,177.541763 670.923523,188.037018 
	C665.599670,205.877029 654.632080,211.945709 636.681580,206.990631 
	C629.391052,204.978165 622.733459,201.732208 617.106079,196.518738 
	C614.914185,194.488052 614.278015,193.074707 616.894226,190.619095 
	C622.209900,185.629745 621.998901,185.511276 627.506470,189.735626 
	C632.197693,193.333862 637.383240,195.880127 643.420837,196.191315 
	C650.692688,196.566101 654.826294,192.941040 655.947693,185.148849 
	C643.956482,189.237549 633.768250,186.081070 626.223511,176.410706 
	C619.308777,167.547897 620.246643,157.840851 626.048828,148.123642 
z"/>
<path fill="#050505" opacity="1.000000" stroke="none" 
	d="
M517.070068,931.015076 
	C520.488403,930.793030 519.448914,928.277710 519.625549,926.812134 
	C520.342102,920.863892 520.798584,914.881287 521.223877,908.902283 
	C521.429016,906.019226 522.088379,904.610596 525.656555,904.864563 
	C536.711121,905.651306 536.844666,905.461853 535.881287,916.257019 
	C534.342285,933.503967 532.575012,950.730591 531.045166,967.978333 
	C530.834595,970.352478 530.154907,971.361023 527.764526,970.839661 
	C527.602966,970.804443 527.433411,970.804626 527.267273,970.792542 
	C515.532410,969.939331 515.542358,969.940430 516.758667,958.223877 
	C517.153992,954.414917 517.379028,950.585266 517.882019,946.791626 
	C518.163269,944.670837 517.600098,943.940918 515.383484,943.760559 
	C507.253448,943.098816 499.133545,942.282654 491.028076,941.364136 
	C487.988312,941.019653 488.328278,943.108276 488.155884,944.832642 
	C487.526550,951.127686 486.862335,957.422424 486.427887,963.732239 
	C486.243561,966.409302 485.251099,967.198730 482.690125,966.529419 
	C478.995789,965.564148 473.789368,967.483276 471.773468,964.711792 
	C470.123596,962.443420 471.747925,957.713989 472.088104,954.091309 
	C473.675873,937.182861 475.318268,920.279480 476.953918,903.375488 
	C477.072021,902.154907 476.615906,900.434387 478.783478,900.616333 
	C482.599274,900.936707 486.403992,901.395996 490.222076,901.679871 
	C492.677002,901.862366 492.088593,903.574158 491.963623,904.952087 
	C491.377045,911.419006 490.802032,917.889282 490.042358,924.337097 
	C489.690430,927.323975 490.183044,928.811218 493.733063,928.992310 
	C501.375763,929.382263 508.991730,930.296021 517.070068,931.015076 
z"/>
<path fill="#060606" opacity="1.000000" stroke="none" 
	d="
M253.038803,847.052002 
	C245.820953,853.737305 246.019318,853.532654 239.198395,846.922119 
	C235.858658,843.685303 236.095581,841.865540 239.483978,838.966248 
	C245.495178,833.822815 251.102264,828.207031 257.842468,821.884644 
	C245.399231,821.884644 234.156937,821.616760 222.937347,822.004883 
	C217.816910,822.181946 214.000504,820.977844 210.977097,816.764771 
	C209.282471,814.403320 207.018280,812.450623 203.998245,809.236023 
	C216.625824,809.236023 227.887680,808.984009 239.128067,809.365112 
	C243.380981,809.509277 244.377731,807.856079 244.869171,804.193726 
	C246.634598,791.037354 248.656219,777.915405 250.754257,763.598145 
	C254.986389,768.116150 258.500854,771.913696 262.072449,775.656738 
	C263.382965,777.030151 262.581696,778.455872 262.393524,779.880737 
	C261.261261,788.454712 260.202271,797.039551 258.939728,805.594360 
	C258.531281,808.362000 259.264313,808.893555 262.101685,809.416077 
	C270.016937,810.873535 274.978699,806.672974 279.584686,801.465332 
	C282.020874,798.710876 283.702637,798.366089 286.452515,801.483215 
	C293.330475,809.279358 293.498383,809.108826 286.085205,816.052002 
	C275.148224,826.295532 264.229523,836.558472 253.038803,847.052002 
z"/>
<path fill="#040404" opacity="1.000000" stroke="none" 
	d="
M504.595703,130.047348 
	C506.249054,123.684052 504.088593,117.461395 503.576691,111.152153 
	C503.307648,107.836655 503.841644,107.045883 507.126556,106.668221 
	C517.969910,105.421555 517.821411,105.267693 518.951904,115.861298 
	C520.769592,132.893036 522.862488,149.895462 524.669495,166.928284 
	C525.593567,175.639099 526.250244,174.334427 518.127563,174.991898 
	C515.201355,175.228760 510.545868,178.100616 511.124054,170.450089 
	C505.954315,176.294540 499.934906,178.477585 493.089966,178.472351 
	C486.134521,178.467041 480.029785,176.263046 475.185913,171.101273 
	C466.687256,162.044891 465.679047,146.131592 472.969940,136.510742 
	C480.203033,126.966148 493.674133,124.153358 504.595703,130.047348 
z"/>
<path fill="#040404" opacity="1.000000" stroke="none" 
	d="
M435.446777,118.436523 
	C436.296814,118.167679 436.783752,118.057358 437.271912,117.952942 
	C440.783936,117.201729 444.865784,114.171577 447.499176,115.836441 
	C449.735687,117.250420 449.899109,122.047379 450.841888,125.386421 
	C455.714081,142.641556 460.431183,159.941666 465.476715,177.145660 
	C466.512207,180.676453 466.049896,182.364792 462.320801,182.876709 
	C460.852356,183.078308 459.391510,183.512634 457.995087,184.025726 
	C454.817505,185.193298 451.875885,186.071701 452.188202,179.668564 
	C447.365906,187.247543 441.224060,190.349167 433.755798,191.116760 
	C427.558716,191.753708 421.842712,190.515289 416.771881,186.794617 
	C406.805542,179.481888 403.108368,163.494751 408.845764,152.629990 
	C414.527588,141.870544 427.689056,137.158890 440.200958,141.850037 
	C438.326691,134.996277 436.539154,128.502335 434.783569,121.999763 
	C434.473999,120.853111 433.177277,119.568008 435.446777,118.436523 
z"/>
<path fill="#050505" opacity="1.000000" stroke="none" 
	d="
M141.131165,560.975952 
	C152.102753,558.502930 162.946503,558.107117 173.650574,556.650269 
	C175.484207,556.400696 176.098877,557.080872 176.058914,558.750793 
	C176.054962,558.916382 176.070755,559.084778 176.097977,559.248474 
	C178.046173,570.957336 178.042358,570.917847 166.162338,572.115723 
	C161.031403,572.633118 155.916458,573.319092 150.801971,573.987549 
	C143.684647,574.917786 140.317413,578.400269 140.604004,584.443665 
	C140.935425,591.432495 145.405655,596.124084 152.469452,595.801758 
	C159.931229,595.461243 167.400558,594.554016 174.775604,593.341064 
	C178.702530,592.695251 180.279114,593.334290 180.754684,597.559875 
	C181.818634,607.013062 182.048843,607.142700 172.486206,608.329285 
	C153.994095,610.623962 135.469757,612.659363 116.980225,614.973572 
	C113.707962,615.383118 112.849037,614.298645 112.416183,611.226807 
	C110.971695,600.975769 110.841194,601.006226 120.907829,599.797852 
	C124.872032,599.321960 128.829468,598.788696 132.786530,598.255920 
	C133.231964,598.195923 133.654846,597.968262 134.110458,597.810608 
	C123.313980,580.327881 125.666176,567.429993 141.131165,560.975952 
z"/>
<path fill="#040404" opacity="1.000000" stroke="none" 
	d="
M151.272308,348.370789 
	C152.664627,345.126709 154.294678,346.988159 155.748657,347.738892 
	C161.462952,350.689240 167.152634,353.687225 173.424149,356.967041 
	C172.573654,350.120544 173.773529,344.414459 176.965714,339.138184 
	C182.595642,329.832489 191.736771,326.441742 201.790787,330.953125 
	C211.010147,335.090027 220.328705,339.413147 228.592178,345.118927 
	C233.481079,348.494690 226.263947,351.909485 225.710999,355.706970 
	C225.406311,357.799530 224.062134,359.009796 221.403503,357.461975 
	C215.669662,354.123840 209.714050,351.165863 203.839767,348.070190 
	C202.372635,347.297028 200.897034,346.529297 199.378632,345.866028 
	C193.013107,343.085388 188.769119,344.254486 185.751465,349.568237 
	C182.440048,355.399261 183.364929,361.342407 188.944351,364.886841 
	C194.953720,368.704346 201.406860,371.827301 207.692368,375.204926 
	C213.746445,378.458191 213.761047,378.431000 210.605209,384.381256 
	C206.905121,391.357697 206.906097,391.355835 199.752701,387.561066 
	C183.035980,378.693207 166.376312,369.714508 149.552811,361.054047 
	C146.112869,359.283264 145.691971,357.809143 147.819244,354.826141 
	C149.155869,352.951813 150.020294,350.740692 151.272308,348.370789 
z"/>
<path fill="#050505" opacity="1.000000" stroke="none" 
	d="
M225.488098,724.375854 
	C230.693115,732.313354 230.692032,732.311707 222.873215,737.511597 
	C218.030899,740.731934 213.121201,743.856934 208.370087,747.206787 
	C202.207932,751.551392 200.924713,756.303833 204.225708,761.596436 
	C207.869644,767.438904 214.050110,769.269104 220.191162,765.654297 
	C226.912384,761.697937 233.373932,757.278748 239.778000,752.816345 
	C242.189102,751.136353 243.335312,751.069336 245.097046,753.746033 
	C251.116882,762.892212 251.242889,762.809998 242.143417,768.840637 
	C226.907730,778.937927 211.619904,788.958191 196.485291,799.204773 
	C193.885941,800.964600 192.879456,800.616028 191.239426,798.123169 
	C185.274460,789.056458 185.176239,789.123291 194.218292,783.130127 
	C197.648056,780.856873 201.071976,778.574768 205.245636,775.800049 
	C198.525925,773.511353 194.029297,769.669067 190.888229,764.249329 
	C185.521606,754.989441 186.805450,745.344055 195.287476,738.849487 
	C203.451279,732.598511 212.258667,727.186951 220.795685,721.424988 
	C224.104172,719.191956 223.820435,723.102478 225.488098,724.375854 
z"/>
<path fill="#050505" opacity="1.000000" stroke="none" 
	d="
M853.040039,752.961670 
	C847.421448,758.375183 844.649536,764.538513 845.867798,772.058716 
	C846.281799,774.614197 845.553833,775.834412 842.970520,776.005005 
	C842.152466,776.059082 841.348999,776.349548 840.541260,776.541870 
	C832.725830,778.402100 832.502502,778.242676 832.201172,770.565247 
	C831.658997,756.749146 842.007019,741.245056 855.518677,735.629150 
	C868.539612,730.217102 883.318176,733.638855 893.199280,744.710510 
	C901.968994,754.536865 903.914124,766.034363 899.435547,778.213379 
	C894.817383,790.771729 886.317810,799.655701 872.777588,802.795654 
	C871.202576,803.160828 869.920227,803.271729 869.720886,800.948059 
	C869.465698,797.973938 868.870422,795.024719 868.339050,792.079651 
	C867.748901,788.807983 870.656006,789.753784 871.958435,789.332092 
	C882.149109,786.032837 888.792175,775.867065 887.490784,766.020752 
	C885.692871,752.417419 866.797791,741.056702 853.040039,752.961670 
z"/>
<path fill="#050505" opacity="1.000000" stroke="none" 
	d="
M782.513672,264.625488 
	C767.715393,257.409058 758.460510,246.696106 758.841309,229.841232 
	C759.321716,208.572311 780.196411,193.289825 800.761169,198.818802 
	C815.122986,202.680099 826.619934,215.099808 828.481567,228.506088 
	C828.831970,231.030060 828.558777,232.185837 825.681641,232.149139 
	C822.698364,232.111084 819.455750,233.373093 816.789429,232.556015 
	C813.765930,231.629456 815.138367,227.653229 814.061523,225.138535 
	C810.065979,215.807770 799.066589,209.837967 789.570496,212.232361 
	C780.090332,214.622772 772.268433,225.407745 773.256714,234.726196 
	C774.338867,244.930466 783.475647,253.942947 793.707031,253.711945 
	C798.696167,253.599289 799.981689,255.392548 800.041077,259.635345 
	C800.059448,260.951324 800.341614,262.289612 800.683533,263.569458 
	C801.319275,265.948639 800.474121,266.851318 798.040649,267.016449 
	C792.796997,267.372284 787.753479,266.667328 782.513672,264.625488 
z"/>
<path fill="#050505" opacity="1.000000" stroke="none" 
	d="
M598.664795,144.960388 
	C595.961792,139.894424 591.726440,138.959656 586.982910,139.574326 
	C581.937561,140.228134 578.728760,143.352615 577.903259,148.235580 
	C576.601257,155.938171 575.620789,163.706665 574.840942,171.481049 
	C574.455811,175.320450 573.129700,176.302750 569.258789,175.583282 
	C559.980286,173.858658 559.865234,174.054321 560.932556,164.392197 
	C562.266724,152.314148 563.802002,140.258179 565.114197,128.177902 
	C565.404785,125.502426 566.214294,124.204559 569.125977,124.884071 
	C570.734619,125.259483 572.428650,125.397469 574.085938,125.410095 
	C577.929199,125.439377 580.537964,126.484901 578.885071,131.607452 
	C586.687683,126.578201 594.384521,125.883675 602.334839,128.980743 
	C608.888733,131.533829 613.241638,136.330200 613.918213,143.376846 
	C615.059448,155.261871 612.687195,167.051468 610.395020,178.531357 
	C609.588196,182.572372 602.621704,178.691879 598.478333,178.979279 
	C595.754761,179.168213 596.325439,177.329834 596.539368,175.599213 
	C597.478882,167.999420 598.301697,160.385239 599.224426,152.783264 
	C599.529907,150.266602 599.416565,147.799240 598.664795,144.960388 
z"/>
<path fill="#060606" opacity="1.000000" stroke="none" 
	d="
M629.062805,901.314514 
	C636.690674,889.775330 652.122070,884.370361 664.788452,888.492249 
	C675.333862,891.923889 682.320007,902.268616 681.962708,913.922729 
	C681.620361,925.084839 673.570740,934.758850 662.006470,937.905945 
	C647.693054,941.801270 634.856140,934.978882 630.298706,921.176514 
	C629.252930,918.009155 629.485229,916.226440 633.262024,915.200928 
	C642.709778,912.635620 652.047668,909.658997 661.390625,906.723145 
	C662.548157,906.359436 664.440186,906.566040 664.728699,905.170166 
	C665.066956,903.533020 663.341370,902.653320 662.207520,901.770569 
	C656.917969,897.652344 646.655029,898.304871 641.738159,904.270142 
	C638.266113,908.482605 635.881104,907.750549 632.614441,905.089417 
	C631.320251,904.035034 628.945190,904.106262 629.062805,901.314514 
z"/>
<path fill="#050505" opacity="1.000000" stroke="none" 
	d="
M149.484070,625.364014 
	C159.731949,621.290833 170.167603,619.094116 180.324615,615.972656 
	C180.801239,615.826111 181.490768,615.452759 181.745163,615.640442 
	C185.697906,618.556580 184.749847,623.526550 186.545364,627.376831 
	C187.617493,629.675842 185.440002,629.638184 184.106125,630.027832 
	C176.134262,632.356262 168.072723,634.414062 160.203064,637.046387 
	C151.472656,639.966675 149.792053,649.598267 156.733871,655.562378 
	C160.256607,658.588928 164.353607,658.591370 168.524567,657.463196 
	C175.580597,655.554749 182.633926,653.621765 189.619324,651.474365 
	C192.234283,650.670532 193.323486,650.935852 194.182556,653.865112 
	C197.293884,664.474365 197.442978,664.459534 186.767044,667.518616 
	C175.268738,670.813232 163.718384,673.932739 152.271851,677.396729 
	C149.409943,678.262878 148.340973,677.747375 147.873093,674.894714 
	C147.553223,672.944397 146.821243,671.052490 146.181427,669.165771 
	C145.135162,666.080505 144.888931,663.507141 150.727310,664.035034 
	C141.563202,656.951965 137.622772,648.712280 139.167664,638.494751 
	C140.068756,632.535156 143.796768,628.300720 149.484070,625.364014 
z"/>
<path fill="#050505" opacity="1.000000" stroke="none" 
	d="
M941.309692,489.057434 
	C939.391052,483.107361 935.274902,480.625549 929.745911,481.049042 
	C921.957703,481.645599 914.195801,482.671936 906.453491,483.738220 
	C903.471313,484.148926 902.111206,483.912628 901.801575,480.268646 
	C900.911255,469.790253 900.679565,469.697235 911.018555,468.330353 
	C922.895081,466.760162 934.812439,465.497803 946.686646,463.911407 
	C949.741699,463.503235 951.022888,464.317535 950.964661,467.430389 
	C950.933777,469.080353 951.079224,470.796539 951.517517,472.379700 
	C952.523743,476.013702 951.763489,478.203461 946.883179,477.873291 
	C950.292603,481.882385 953.071716,485.588928 954.224304,490.354340 
	C957.540771,504.067505 951.173523,514.480225 937.374329,516.744446 
	C928.351013,518.224976 919.196411,518.891052 910.141052,520.201233 
	C907.365479,520.602783 906.816895,519.583801 906.380615,517.226929 
	C904.309875,506.037933 904.252197,506.087708 915.275574,504.900726 
	C920.734436,504.312927 926.188904,503.649445 931.620361,502.850555 
	C939.892395,501.633881 942.787842,497.593842 941.309692,489.057434 
z"/>
<path fill="#050505" opacity="1.000000" stroke="none" 
	d="
M195.946594,396.161621 
	C203.546600,398.823608 203.546616,398.823608 201.041641,406.299164 
	C198.922089,412.624420 198.929871,412.601105 192.783249,410.539032 
	C186.020264,408.270172 179.286331,405.898499 172.455643,403.852356 
	C165.996902,401.917664 162.003937,403.713745 159.753845,409.081024 
	C157.185699,415.207001 158.860519,421.216064 164.739609,423.931183 
	C170.586044,426.631256 176.822784,428.501068 182.926300,430.626068 
	C191.800156,433.715485 191.510681,433.588196 189.059814,442.287872 
	C187.755157,446.918945 185.912415,447.238983 181.783157,445.744019 
	C168.993393,441.113617 156.076218,436.828217 143.149643,432.588318 
	C140.306412,431.655731 139.266708,430.583466 140.799698,427.709473 
	C141.568039,426.268951 141.940002,424.593201 142.343475,422.986725 
	C143.198807,419.581238 144.327698,416.773407 149.414963,420.350525 
	C146.432983,412.677856 146.765091,406.229034 149.571838,399.893585 
	C153.779388,390.396210 162.312408,385.903168 172.352127,388.588440 
	C180.194870,390.686096 187.836349,393.536255 195.946594,396.161621 
z"/>
<path fill="#060606" opacity="1.000000" stroke="none" 
	d="
M941.817627,427.305969 
	C943.978882,443.697235 937.200500,454.635529 923.199341,458.228363 
	C920.605835,458.893921 919.514648,458.777069 918.730774,455.788147 
	C916.080750,445.683624 912.877930,435.724640 910.190369,425.629120 
	C909.299194,422.281158 908.269592,422.847198 906.398071,424.650574 
	C900.881042,429.966736 901.966553,441.221741 908.565491,447.576050 
	C909.599976,448.572205 912.146423,449.040222 910.719116,451.287109 
	C909.041443,453.927948 907.951721,457.002441 905.449280,459.035431 
	C905.153931,459.275330 903.985962,458.560089 903.289062,458.168976 
	C892.676453,452.212952 887.477112,432.356384 893.328796,420.191193 
	C898.852844,408.706970 913.327881,403.162079 925.621765,407.904968 
	C934.413940,411.296967 939.218933,418.147278 941.817627,427.305969 
z"/>
<path fill="#060606" opacity="1.000000" stroke="none" 
	d="
M350.702271,904.842285 
	C333.801483,904.839111 320.738678,893.102478 321.048187,878.537537 
	C321.086578,876.730530 321.423309,874.899780 321.852264,873.136047 
	C324.520142,862.165955 325.958252,861.517883 335.398712,866.893372 
	C342.470245,870.920044 349.526611,874.973572 356.616974,878.966797 
	C357.573059,879.505310 358.572784,880.788818 359.709961,880.014343 
	C360.892883,879.208679 360.642029,877.654724 360.527832,876.339905 
	C359.872772,868.798035 351.666138,862.408142 342.895996,862.598572 
	C339.351837,862.675476 336.848694,859.068298 337.080780,853.666199 
	C337.231598,850.154602 340.353394,850.960022 342.332458,850.948181 
	C355.084381,850.872009 364.741730,856.675171 371.069458,867.515869 
	C376.283386,876.448364 374.988617,885.417236 369.346710,893.830566 
	C365.008087,900.300293 358.778107,903.756775 350.702271,904.842285 
z"/>
<path fill="#050505" opacity="1.000000" stroke="none" 
	d="
M928.684082,676.984009 
	C930.657593,684.474060 929.780762,691.372192 925.871338,697.811768 
	C921.410889,705.158997 913.682739,708.671997 905.366760,706.520020 
	C894.918213,703.816162 885.145569,699.128967 875.030396,695.435974 
	C874.718689,695.322205 874.195862,695.222107 874.150269,695.027161 
	C873.057495,690.351379 876.622986,686.960938 877.576660,682.832031 
	C878.151123,680.344971 879.895447,681.713379 881.084900,682.155518 
	C888.231018,684.812012 895.317993,687.627930 902.470337,690.267212 
	C910.277771,693.148254 914.961975,691.642883 917.458923,685.630859 
	C920.250610,678.909119 917.852295,673.017029 910.580200,669.902222 
	C903.577637,666.902832 896.418518,664.255737 889.258667,661.644348 
	C886.926575,660.793701 886.235779,659.939697 887.122742,657.374207 
	C890.848999,646.595886 890.753601,646.575623 901.537476,650.706543 
	C912.681152,654.975220 923.802246,659.306824 935.006775,663.409851 
	C937.691284,664.392883 938.283752,665.495300 937.013367,668.023804 
	C935.901794,670.236145 934.918457,672.569397 934.300720,674.958435 
	C933.613098,677.617676 932.173828,677.476868 929.868408,676.521729 
	C929.187500,676.550171 928.881958,676.664551 928.684082,676.984009 
z"/>
<path fill="#050505" opacity="1.000000" stroke="none" 
	d="
M438.734009,890.332275 
	C447.156952,891.292114 454.356140,893.954834 459.836945,900.120483 
	C466.687225,907.826782 467.876831,916.690186 464.393951,926.144653 
	C461.011749,935.325806 454.280182,940.767944 444.549713,942.116455 
	C422.233154,945.209229 405.602234,926.504028 412.953186,906.682007 
	C416.844482,896.188965 425.596436,890.526794 438.734009,890.332275 
z"/>
<path fill="#050505" opacity="1.000000" stroke="none" 
	d="
M866.183716,299.235565 
	C867.187378,298.591034 867.894958,298.155396 868.592346,297.704163 
	C876.059998,292.872986 875.919250,292.968414 881.021851,300.418884 
	C883.071899,303.412354 883.763611,305.564453 878.878052,307.449310 
	C885.874451,309.801666 890.668823,313.600403 893.929626,319.235474 
	C899.327515,328.563660 898.154907,338.169739 889.630737,344.659332 
	C881.319458,350.986877 872.229736,356.287842 863.537903,362.123169 
	C861.965027,363.179138 861.178894,362.703156 860.464294,361.282867 
	C860.390015,361.135254 860.289185,360.999786 860.191833,360.865143 
	C853.312683,351.350464 853.316650,351.356720 863.205872,344.943451 
	C867.808350,341.958649 872.474915,339.062805 876.962585,335.913208 
	C882.523926,332.010162 883.765015,327.258728 880.841736,322.213776 
	C877.488281,316.426575 871.358582,314.176392 865.486694,317.430603 
	C858.523071,321.289825 851.888245,325.765747 845.266724,330.206787 
	C842.729187,331.908722 841.461304,332.128235 839.595520,329.155060 
	C833.909363,320.093842 833.746887,320.195435 842.844177,314.318542 
	C850.523438,309.357697 858.203247,304.397644 866.183716,299.235565 
z"/>
<path fill="#050505" opacity="1.000000" stroke="none" 
	d="
M845.796265,822.728088 
	C834.299500,837.425903 817.863159,839.290405 805.878235,827.703979 
	C803.534241,825.438049 803.569885,824.106812 805.849365,821.795715 
	C813.659729,813.877014 821.228271,805.719727 828.943115,797.596497 
	C820.995361,792.987610 811.202515,797.915833 807.780518,807.676208 
	C807.155457,809.459045 808.098511,812.402649 805.991272,812.887573 
	C803.148132,813.541931 800.032043,813.051697 797.034851,812.978699 
	C795.300903,812.936462 795.528748,811.555969 795.481995,810.423584 
	C794.963867,797.880371 810.549438,782.766785 824.543884,782.237427 
	C837.800354,781.735962 850.181824,793.638855 850.510559,807.370728 
	C850.641052,812.821167 849.079895,817.879883 845.796265,822.728088 
z"/>
<path fill="#050505" opacity="1.000000" stroke="none" 
	d="
M785.996704,815.942139 
	C794.812988,827.443237 803.309082,838.742188 812.129883,849.781494 
	C814.532837,852.788879 814.304749,854.433960 811.147156,856.222473 
	C809.859070,856.952087 808.638611,857.900757 807.606140,858.962524 
	C804.972778,861.670532 802.705811,861.865234 800.411072,857.175232 
	C798.869141,864.434631 795.430603,869.433167 790.185181,873.173950 
	C781.359802,879.467896 771.301758,879.024170 764.118042,870.963989 
	C757.274963,863.286011 750.495483,855.312439 745.263916,846.530090 
	C742.301208,841.556458 750.257935,841.320984 752.385010,838.106262 
	C753.648987,836.196167 755.237061,835.999268 756.963623,838.354614 
	C761.876892,845.057190 766.878479,851.716431 772.220642,858.077576 
	C778.000122,864.959412 787.222534,863.296265 790.511108,854.987305 
	C792.274414,850.532410 790.983582,846.486877 788.240112,842.844177 
	C783.839478,837.001160 779.498413,831.102844 774.839783,825.469727 
	C772.853149,823.067749 772.921875,821.760254 775.524841,820.123169 
	C777.907715,818.624451 780.143372,816.851868 782.272156,815.002136 
	C783.896179,813.591125 784.862061,814.118835 785.996704,815.942139 
z"/>
<path fill="#050505" opacity="1.000000" stroke="none" 
	d="
M818.075134,254.938599 
	C828.571167,249.629715 838.145447,250.998535 846.782776,257.980255 
	C855.632874,265.134033 860.549805,274.321228 857.962769,285.997498 
	C855.673340,296.330444 848.800171,302.759521 838.689026,305.463593 
	C826.558899,308.707581 812.673279,300.864014 806.923279,287.834747 
	C801.440491,275.410950 805.373962,263.502319 818.075134,254.938599 
z"/>
<path fill="#050505" opacity="1.000000" stroke="none" 
	d="
M358.458252,168.484680 
	C364.907288,162.081619 372.344269,158.622940 381.102936,159.150955 
	C391.162292,159.757385 397.875183,165.441757 402.253601,174.318344 
	C403.640442,177.129990 403.450958,178.573013 400.317047,179.924484 
	C391.491791,183.730270 382.806519,187.861923 374.084534,191.904984 
	C372.618622,192.584518 370.872833,192.841522 369.883209,194.356537 
	C376.498566,201.478287 387.933105,199.851395 394.095276,190.944153 
	C396.173462,187.940231 400.360779,187.954834 404.796936,191.229904 
	C407.768188,193.423477 405.104889,195.554764 404.028687,197.083496 
	C396.448822,207.850464 385.697418,212.117371 372.882080,210.866791 
	C363.074463,209.909714 355.215637,202.147369 352.568268,191.469391 
	C350.462891,182.977554 352.454742,175.356628 358.458252,168.484680 
z"/>
<path fill="#050505" opacity="1.000000" stroke="none" 
	d="
M161.040558,700.406921 
	C162.072464,693.339722 165.899170,688.660278 171.701508,685.771423 
	C180.318741,681.480896 189.142151,677.606323 197.815979,673.426392 
	C199.840637,672.450684 200.805725,672.865906 201.558716,674.868835 
	C202.257965,676.728821 203.093399,678.554871 204.048416,680.297424 
	C205.578964,683.090027 206.541077,685.627686 201.191177,686.832092 
	C210.480743,690.868164 214.186188,697.762817 215.328232,706.229980 
	C216.302872,713.456055 212.898041,719.271484 206.529251,721.934814 
	C200.575363,724.424622 194.697861,722.817444 190.013947,717.359009 
	C185.170837,711.715088 183.143158,704.518860 179.599808,698.154663 
	C174.176025,701.297119 172.865372,704.504395 174.663132,710.112305 
	C176.181564,714.848816 178.826736,718.903870 182.892426,721.713318 
	C185.288528,723.369019 185.353394,724.415039 183.631226,726.652710 
	C178.394806,733.456848 177.852432,733.682251 172.089310,727.289490 
	C165.346191,719.809692 160.681915,711.338867 161.040558,700.406921 
z"/>
<path fill="#040404" opacity="1.000000" stroke="none" 
	d="
M938.993530,597.924072 
	C953.546387,609.219177 950.774963,631.278931 939.677246,641.431885 
	C931.306641,649.089844 918.612122,650.063965 908.664673,643.847717 
	C898.610535,637.565002 894.566528,624.978516 898.473694,612.129822 
	C903.993835,593.977112 922.249817,587.434570 938.993530,597.924072 
z"/>
<path fill="#050505" opacity="1.000000" stroke="none" 
	d="
M169.535217,522.087036 
	C151.216324,520.244446 133.346161,518.358398 115.456024,516.686218 
	C111.882660,516.352234 110.344063,515.344177 111.510887,511.559448 
	C112.528030,508.260132 110.630875,503.355591 113.344017,501.718567 
	C115.774567,500.252075 120.069359,501.777985 123.526985,502.128540 
	C135.941406,503.387238 148.364456,504.584473 160.750992,506.080292 
	C164.390869,506.519836 165.734650,505.658722 165.961365,501.865845 
	C166.427612,494.065216 167.594849,486.306183 168.049103,478.505310 
	C168.288040,474.401886 169.943298,473.693298 173.628189,474.300446 
	C180.754852,475.474670 180.819336,475.313568 180.115463,482.677063 
	C179.038864,493.939575 177.724167,505.183014 176.880447,516.462280 
	C176.523438,521.234741 175.434097,524.065247 169.535217,522.087036 
z"/>
<path fill="#050505" opacity="1.000000" stroke="none" 
	d="
M929.431824,390.667603 
	C929.966980,392.443329 931.244324,393.573212 930.966553,395.294403 
	C930.120544,396.381042 928.861267,395.853424 927.809937,395.879913 
	C912.160095,396.274231 896.506348,396.536530 880.860291,397.039825 
	C878.078491,397.129272 876.843018,396.265259 875.721252,393.754761 
	C871.078003,383.363556 870.969360,383.401184 878.728149,375.075104 
	C888.363953,364.734650 898.014587,354.408081 908.148193,343.551270 
	C910.104492,347.810181 911.783997,351.676849 913.651428,355.450562 
	C914.710632,357.591034 913.115540,358.476257 912.028503,359.622589 
	C905.726013,366.268677 899.381409,372.874878 893.103027,379.543579 
	C892.010376,380.704193 890.468323,381.560913 890.122681,383.080566 
	C899.527710,383.080566 908.951538,383.650360 918.265137,382.883087 
	C924.623779,382.359222 927.857300,384.460632 929.431824,390.667603 
z"/>
<path fill="#060606" opacity="1.000000" stroke="none" 
	d="
M967.757568,537.110718 
	C967.746399,538.080933 967.742615,538.580383 967.737793,539.079773 
	C967.665039,546.588928 967.658203,546.773010 959.989075,546.488708 
	C956.398315,546.355652 954.566956,547.165955 955.236816,551.061646 
	C955.320068,551.546021 955.289185,552.064453 955.228210,552.556763 
	C954.971069,554.631714 956.170227,557.968628 954.502747,558.537048 
	C951.669312,559.502991 948.244751,559.172607 945.147949,558.772522 
	C943.119019,558.510437 944.108704,556.291016 944.081360,554.972900 
	C943.901917,546.314575 943.942444,546.311890 935.183838,546.235535 
	C931.521606,546.203674 927.855652,546.067383 924.197693,546.181152 
	C918.501526,546.358215 915.937805,549.608704 917.451172,555.078125 
	C919.331787,561.875122 913.023926,559.460205 910.597839,561.140991 
	C907.485168,563.297485 907.315674,559.728271 906.719543,557.989075 
	C901.607361,543.074280 909.567261,531.712708 925.054260,531.723022 
	C929.382385,531.725891 933.731567,531.540771 938.032776,531.900269 
	C942.290771,532.256226 945.230713,531.780090 944.276489,526.420044 
	C943.984924,524.782532 944.786194,523.949341 946.534119,524.034119 
	C948.195312,524.114685 949.889893,524.261963 951.521790,524.034912 
	C954.913818,523.563232 956.127014,525.005737 955.552612,528.202332 
	C954.989258,531.337891 956.287720,532.425354 959.336670,531.995667 
	C960.641479,531.811707 962.027649,532.168152 963.321472,531.950134 
	C967.239929,531.289978 968.417786,533.055786 967.757568,537.110718 
z"/>
<path fill="#040404" opacity="1.000000" stroke="none" 
	d="
M392.437683,887.372620 
	C391.233185,884.320190 389.001190,883.011963 386.439880,883.026123 
	C383.384308,883.042908 382.608704,882.108032 382.738281,879.041931 
	C383.073639,871.108643 383.962341,870.310791 391.700531,872.462952 
	C405.773956,876.377197 410.387787,885.606140 404.931305,898.983582 
	C402.988525,903.746643 401.143402,908.560059 398.943054,913.203369 
	C397.727142,915.769287 398.091217,917.291260 400.836823,917.811646 
	C405.206024,918.639832 404.128357,920.974548 403.045776,923.895142 
	C401.580627,927.847900 400.199310,931.113342 395.300323,927.694336 
	C393.161713,926.201782 392.877930,928.130432 392.269958,929.367371 
	C390.894165,932.166565 390.765198,936.729919 388.202362,937.450195 
	C385.802612,938.124634 382.550629,935.221619 379.536560,934.390076 
	C375.607788,933.306213 375.407013,931.450378 376.954498,928.037659 
	C379.997040,921.327637 379.787872,921.318787 373.448456,918.527832 
	C371.790527,917.797974 368.668549,917.812439 369.028046,915.500366 
	C369.495667,912.492859 370.959839,909.478271 372.646545,906.891479 
	C373.472443,905.624817 375.321014,907.278015 376.630249,907.802124 
	C384.168549,910.819763 384.304871,910.894653 387.302521,903.147827 
	C389.256622,898.097839 392.552795,893.482788 392.437683,887.372620 
z"/>
<path fill="#040404" opacity="1.000000" stroke="none" 
	d="
M718.958191,871.886292 
	C717.847290,872.903198 717.720337,874.559631 715.676819,873.466675 
	C707.865601,869.288818 707.515747,866.098206 714.573914,860.792664 
	C725.861328,852.308289 736.149353,854.349792 743.276917,866.505920 
	C745.881470,870.947998 748.536560,875.364563 750.989319,879.889893 
	C752.206055,882.134827 753.372498,883.440491 755.745972,881.318237 
	C758.865723,878.528748 760.589905,880.175476 761.913818,883.230835 
	C762.241943,883.988159 762.628601,884.751282 763.137329,885.393738 
	C765.076721,887.842834 765.044800,889.745972 761.765015,890.842834 
	C758.760132,891.847717 758.699280,893.395264 760.227783,896.023987 
	C764.508911,903.386719 764.210876,903.174683 757.261597,907.719727 
	C753.063599,910.465515 750.612244,910.276978 748.929565,905.422546 
	C747.243286,900.557495 744.551697,899.795471 740.399719,903.041260 
	C738.843201,904.258057 736.408203,906.679749 734.970093,905.417725 
	C732.721863,903.444641 731.368835,900.297058 730.076904,897.447388 
	C729.318115,895.773621 731.406616,895.488037 732.424683,894.852844 
	C740.084351,890.074341 740.092468,890.089905 735.529846,882.185974 
	C733.951965,879.452454 732.417236,876.693359 730.799744,873.983582 
	C727.309143,868.135437 724.945068,867.666504 718.958191,871.886292 
z"/>
<path fill="#050505" opacity="1.000000" stroke="none" 
	d="
M306.867432,874.899414 
	C302.458435,880.980164 298.101471,886.665161 294.102020,892.591431 
	C292.314941,895.239441 291.133118,895.106201 288.718597,893.324646 
	C280.069153,886.942444 280.001343,887.054199 286.408020,878.252136 
	C297.080872,863.588867 307.796234,848.955811 318.351624,834.208374 
	C320.178284,831.656250 321.370056,831.248169 324.055908,833.245544 
	C332.562378,839.571655 332.656219,839.441528 326.451263,847.963318 
	C319.986969,856.841187 313.526917,865.722168 306.867432,874.899414 
z"/>
<path fill="#050505" opacity="1.000000" stroke="none" 
	d="
M709.884277,883.043091 
	C713.967346,892.179321 717.837036,900.999084 721.923401,909.717285 
	C723.140991,912.315063 723.212585,913.933594 720.103577,914.859863 
	C718.526367,915.329773 716.985168,916.055847 715.567993,916.901245 
	C712.041199,919.005005 709.446533,918.968689 708.511719,912.910278 
	C706.187622,918.462952 703.195801,922.069153 699.088623,924.743103 
	C696.575989,926.378906 694.647766,926.942444 693.750671,923.237793 
	C693.636475,922.766113 693.344849,922.329895 693.097351,921.899109 
	C690.568970,917.498901 688.988098,914.095032 695.795227,911.255310 
	C701.282654,908.966187 702.376038,902.785583 699.803162,896.444031 
	C697.058472,889.678955 694.039062,883.014282 690.853027,876.444824 
	C689.655334,873.975220 690.260986,873.105103 692.519470,872.026489 
	C702.687195,867.170410 702.652710,867.108765 707.225281,877.272339 
	C708.042542,879.088989 708.909668,880.883240 709.884277,883.043091 
z"/>
<path fill="#020202" opacity="1.000000" stroke="none" 
	d="
M535.714050,127.631912 
	C535.765015,126.067772 535.490295,124.696983 537.260925,124.687508 
	C540.913940,124.667946 544.567688,124.746185 548.220215,124.701599 
	C550.260254,124.676697 550.126099,126.021912 550.122375,127.379578 
	C550.081482,142.324890 550.047791,157.270203 550.008057,172.215500 
	C550.006775,172.712402 550.159119,173.483627 549.907349,173.664825 
	C546.078247,176.420334 541.742065,174.284561 537.659607,174.824738 
	C534.959351,175.182037 535.460327,172.968384 535.466919,171.412369 
	C535.527954,156.965347 535.625244,142.518494 535.714050,127.631912 
z"/>
<path fill="#050505" opacity="1.000000" stroke="none" 
	d="
M954.916260,576.957581 
	C953.811890,586.592468 953.801392,586.708313 944.807861,585.891602 
	C932.204346,584.747009 919.628540,583.287476 907.017456,582.245850 
	C904.127014,582.007202 903.962524,580.889893 904.152283,578.566589 
	C905.096680,567.002014 905.034241,567.145386 916.709412,568.485168 
	C928.122986,569.794983 939.562073,570.957581 951.019592,571.764771 
	C954.648438,572.020447 955.709656,573.193176 954.916260,576.957581 
z"/>
<path fill="#050505" opacity="1.000000" stroke="none" 
	d="
M135.273026,452.194763 
	C135.484253,446.883728 137.787979,446.566193 142.139587,447.604370 
	C155.192123,450.718353 168.365189,453.340454 181.529282,455.963531 
	C184.495087,456.554474 185.723480,457.308014 185.017227,460.733185 
	C182.880188,471.097534 183.025436,471.177460 172.706772,469.043091 
	C161.671631,466.760529 150.711868,464.055756 139.610825,462.175049 
	C134.374786,461.287994 132.736084,459.458405 134.858170,454.568237 
	C135.113525,453.979828 135.073578,453.263245 135.273026,452.194763 
z"/>
<path fill="#080808" opacity="1.000000" stroke="none" 
	d="
M598.092285,930.129456 
	C598.759338,932.835693 597.406433,933.343994 595.510010,933.549622 
	C588.598389,934.298828 581.686096,935.052673 574.790283,935.931763 
	C572.543152,936.218262 572.124695,935.318665 571.859497,933.272461 
	C570.760498,924.790527 570.666992,924.777649 578.981812,923.672119 
	C583.411499,923.083130 587.897278,922.822205 592.279724,921.998291 
	C596.429688,921.218079 598.027527,922.766113 597.867126,926.762573 
	C597.827515,927.749573 597.991577,928.744812 598.092285,930.129456 
z"/>
<path fill="#080808" opacity="1.000000" stroke="none" 
	d="
M734.613525,195.395050 
	C730.440857,203.575195 730.441467,203.573959 722.680115,199.552109 
	C718.420654,197.344894 714.191467,195.075394 709.883362,192.967300 
	C707.830017,191.962524 706.898315,191.166519 708.191589,188.588852 
	C712.057922,180.882523 711.913696,180.810898 719.538086,184.753723 
	C723.945129,187.032715 728.361755,189.293350 732.755859,191.596924 
	C734.120239,192.312164 736.190125,192.687927 734.613525,195.395050 
z"/>
<path fill="#080808" opacity="1.000000" stroke="none" 
	d="
M235.191010,305.237732 
	C234.211151,306.275482 233.839493,307.354034 232.216461,306.459717 
	C224.614731,302.271179 224.143829,300.286743 229.556992,293.574127 
	C232.570740,289.836884 235.778061,286.238312 238.552948,282.332031 
	C240.373886,279.768677 241.587540,279.809479 243.942917,281.755280 
	C250.069916,286.816833 250.181946,286.692657 245.104584,292.992401 
	C241.884216,296.988098 238.643982,300.967773 235.191010,305.237732 
z"/>
<path fill="#060606" opacity="1.000000" stroke="none" 
	d="
M550.400085,114.197662 
	C549.531189,115.034172 548.991333,115.705223 548.296753,116.112000 
	C543.950989,118.656921 538.441406,117.937897 535.707825,114.360260 
	C533.180664,111.052788 533.247559,107.614647 535.923523,104.405823 
	C538.666077,101.117203 544.296814,100.411888 548.179810,102.731628 
	C552.124695,105.088364 552.897461,108.574631 550.400085,114.197662 
z"/>
<path fill="#060606" opacity="1.000000" stroke="none" 
	d="
M119.269974,459.407196 
	C114.260674,458.481873 112.029266,455.445190 112.120689,450.969116 
	C112.206352,446.774811 113.796562,443.146667 118.276619,441.802673 
	C121.854156,440.729370 124.787697,442.002930 126.948494,444.938599 
	C130.419342,449.654053 127.482483,460.078247 119.269974,459.407196 
z"/>
<path fill="#060606" opacity="1.000000" stroke="none" 
	d="
M970.721436,571.999329 
	C973.767334,572.523499 975.755554,574.013916 976.812134,576.424438 
	C978.659851,580.639771 978.075012,584.621582 974.778748,587.912170 
	C972.242126,590.444397 969.149902,590.674072 966.037720,589.027954 
	C961.849792,586.812988 960.985718,583.071045 961.875366,578.796997 
	C962.811890,574.297852 965.616455,571.905518 970.721436,571.999329 
z"/>
<path fill="#0A0A0A" opacity="1.000000" stroke="none" 
	d="
M140.018250,708.934326 
	C139.536240,707.533386 138.547791,706.689026 138.927307,705.416260 
	C153.160889,709.783813 157.827591,713.570312 161.433853,723.970032 
	C152.689850,721.087341 142.595047,720.874390 140.018250,708.934326 
z"/>
<path fill="#FFFFFF" opacity="1.000000" stroke="none" 
	d="
M328.096863,215.947342 
	C328.505768,216.226089 328.927246,216.852570 328.788544,217.308731 
	C328.593475,217.950256 328.116028,217.463211 327.607758,216.989288 
	C327.566498,216.600754 327.712952,216.409897 328.096863,215.947342 
z"/>
<path fill="#FAFAFA" opacity="1.000000" stroke="none" 
	d="
M653.774902,151.877945 
	C661.706909,155.760345 664.298096,161.233063 661.745239,168.008133 
	C659.512573,173.933487 653.691467,176.875534 647.231079,175.343704 
	C639.287476,173.460159 634.873779,167.448380 636.481262,160.701691 
	C638.365173,152.795059 644.509949,149.548050 653.774902,151.877945 
z"/>
<path fill="#FBFBFB" opacity="1.000000" stroke="none" 
	d="
M499.248779,165.835953 
	C488.810638,167.974777 481.948700,160.254669 483.025665,149.624710 
	C483.572266,144.229843 487.446075,139.994339 492.670105,138.937424 
	C498.674896,137.722549 504.134216,139.981079 506.664581,145.041992 
	C510.026001,151.765030 509.519135,162.457642 499.248779,165.835953 
z"/>
<path fill="#FFFFFF" opacity="1.000000" stroke="none" 
	d="
M504.943665,130.087402 
	C505.141205,130.068985 505.355042,130.003235 505.572662,129.986328 
	C505.607880,129.983612 505.659973,130.197678 505.704254,130.311523 
	C505.514954,130.372360 505.325684,130.433197 505.069122,130.245865 
	C505.001862,129.997711 504.961182,130.056335 504.943665,130.087402 
z"/>
<path fill="#FBFBFB" opacity="1.000000" stroke="none" 
	d="
M425.636108,175.430695 
	C418.591339,166.716278 419.462097,156.631149 427.321136,152.483002 
	C433.016357,149.476959 439.548981,150.819763 443.396881,155.787415 
	C447.902496,161.604172 447.926453,169.776031 443.451904,174.582825 
	C438.971283,179.396133 432.113068,179.829163 425.636108,175.430695 
z"/>
<path fill="#F6F6F6" opacity="1.000000" stroke="none" 
	d="
M655.107788,927.850586 
	C651.108826,927.368347 648.066772,925.935669 645.866394,922.905090 
	C644.819336,921.462891 644.860840,920.618225 646.733032,920.058716 
	C653.077576,918.162903 659.410950,916.227905 665.725098,914.233521 
	C667.872925,913.555176 668.259644,914.442688 668.266907,916.373718 
	C668.289246,922.282898 663.701599,926.474182 655.107788,927.850586 
z"/>
<path fill="#F7F7F7" opacity="1.000000" stroke="none" 
	d="
M918.866699,424.987854 
	C918.296997,423.199036 917.165466,421.445038 918.076599,420.431335 
	C919.197144,419.184570 921.245300,419.835815 922.787659,420.353333 
	C927.454163,421.919159 930.114746,425.330170 931.017883,430.083221 
	C931.882874,434.635437 930.844238,438.637360 927.218506,441.780182 
	C925.320374,443.425537 923.988342,443.787506 923.213562,440.709991 
	C921.920837,435.574860 920.389648,430.499725 918.866699,424.987854 
z"/>
<path fill="#F7F7F7" opacity="1.000000" stroke="none" 
	d="
M344.450928,892.979858 
	C336.505615,890.109680 333.395508,886.220154 333.742004,880.124268 
	C333.886383,877.584900 334.118469,875.774231 337.423279,877.794434 
	C343.354431,881.419983 349.475281,884.735168 355.701172,888.285217 
	C352.966248,892.405029 349.228943,893.433777 344.450928,892.979858 
z"/>
<path fill="#FFFFFF" opacity="1.000000" stroke="none" 
	d="
M928.976562,677.013306 
	C928.633057,676.907471 928.469788,676.613464 928.306519,676.319458 
	C928.551208,676.263184 928.795837,676.206848 929.264526,676.287048 
	C929.377869,676.557434 929.267273,676.691345 928.976562,677.013306 
z"/>
<path fill="#FCFCFC" opacity="1.000000" stroke="none" 
	d="
M440.638306,902.775024 
	C450.424042,905.467896 453.918121,912.453247 450.404633,921.533081 
	C447.397919,929.303162 439.990631,932.391418 432.668854,928.927490 
	C427.121826,926.303223 424.615204,920.544312 426.100861,913.837646 
	C427.734467,906.463074 432.520905,902.690002 440.638306,902.775024 
z"/>
<path fill="#F7F7F7" opacity="1.000000" stroke="none" 
	d="
M826.499023,812.498413 
	C829.579163,809.254395 832.414551,806.264343 835.280090,803.242554 
	C839.177856,808.332214 839.158264,813.572083 835.405151,818.173828 
	C831.684631,822.735596 826.003967,824.273682 821.230408,822.240112 
	C819.145447,821.351990 818.609985,820.594666 820.428772,818.854126 
	C822.458313,816.911804 824.319702,814.793884 826.499023,812.498413 
z"/>
<path fill="#FBFBFB" opacity="1.000000" stroke="none" 
	d="
M838.039795,266.709229 
	C844.294739,271.099121 846.556702,275.535187 844.870605,281.163177 
	C843.071228,287.169220 838.837585,291.002350 832.634033,292.304138 
	C827.732971,293.332611 822.877380,290.960266 819.907654,286.391602 
	C817.007751,281.930267 817.288818,276.445496 820.646057,271.984344 
	C825.088684,266.080933 830.366211,264.390564 838.039795,266.709229 
z"/>
<path fill="#F6F6F6" opacity="1.000000" stroke="none" 
	d="
M365.321747,179.739685 
	C369.480255,170.791565 379.082397,167.873413 385.450043,173.235687 
	C387.663452,175.099609 388.080200,176.327026 384.859772,177.629272 
	C380.100128,179.553940 375.497406,181.866287 370.824860,184.006943 
	C364.807709,186.763626 364.806427,186.760803 365.321747,179.739685 
z"/>
<path fill="#F6F6F6" opacity="1.000000" stroke="none" 
	d="
M192.577179,705.316895 
	C191.288101,702.769409 190.185135,700.533997 189.146194,698.269287 
	C187.401810,694.466675 188.463318,692.614441 192.628937,692.109924 
	C198.647736,691.380920 205.648849,700.191650 203.539963,705.835266 
	C202.770432,707.894592 201.257660,709.137207 199.146393,709.468018 
	C196.016434,709.958557 194.236801,708.014709 192.577179,705.316895 
z"/>
<path fill="#FAFAFA" opacity="1.000000" stroke="none" 
	d="
M934.819641,627.591553 
	C929.137024,633.894531 921.115967,634.930725 914.534668,630.422302 
	C910.320251,627.535339 908.386658,623.445007 909.245911,618.393799 
	C910.110962,613.309082 912.797974,609.379272 918.018494,607.989441 
	C924.104126,606.369324 929.643738,607.746765 933.898132,612.467529 
	C937.958130,616.972656 937.718262,622.094055 934.819641,627.591553 
z"/>
</svg>